<svg xmlns="http://www.w3.org/2000/svg" width="320" height="300" viewBox="0 0 320 300">
  <g transform="translate(160,95) scale(1.15)">
    <path d="M40,0 L20,34.64 L-20,34.64 L-40,0 L-20,-34.64 L20,-34.64 Z" fill="#F2F9F4" stroke="#123A52" stroke-width="3.6"/>
    <path d="M0,-26 C 16,-13 16,13 0,26 C -16,13 -16,-13 0,-26 Z" fill="#2FA84F"/>
    <path d="M0,-20 L0,20 M0,-6 L11,-14 M0,-6 L-11,-14 M0,6 L10,-1 M0,6 L-10,-1" stroke="#FFFFFF" stroke-width="2" stroke-linecap="round" fill="none"/>
    <circle cx="0" cy="-20" r="2.6" fill="#FFFFFF"/><circle cx="0" cy="20" r="2.6" fill="#FFFFFF"/>
    <circle cx="11" cy="-14" r="2.4" fill="#FFFFFF"/><circle cx="-11" cy="-14" r="2.4" fill="#FFFFFF"/>
    <circle cx="10" cy="-1" r="2.4" fill="#FFFFFF"/><circle cx="-10" cy="-1" r="2.4" fill="#FFFFFF"/>
  </g>
  <text x="160" y="232" text-anchor="middle" font-family="Liberation Sans, Arial, sans-serif" font-size="46" font-weight="bold" letter-spacing="-1"><tspan fill="#123A52">Nutri</tspan><tspan fill="#2FA84F">Max</tspan></text>
  <text x="160" y="260" text-anchor="middle" font-family="Liberation Sans, Arial, sans-serif" font-size="15" font-weight="bold" letter-spacing="6.5" fill="#5A7280">DISTRIBUIDORA</text>
</svg>
